Coordinates
version=1
nRows=17
nColumns=34
inDegrees=yes

Units are S.I. units (second, meters, Newtons, ...)
If the header above contains a line with 'inDegrees', this indicates whether rotational values are in degrees (yes) or radians (no).

endheader
time	pelvis_tilt	pelvis_list	pelvis_rotation	pelvis_tx	pelvis_ty	pelvis_tz	hip_flexion_r	hip_adduction_r	hip_rotation_r	knee_angle_r	ankle_angle_r	subtalar_angle_r	mtp_angle_r	hip_flexion_l	hip_adduction_l	hip_rotation_l	knee_angle_l	ankle_angle_l	subtalar_angle_l	mtp_angle_l	lumbar_extension	lumbar_bending	lumbar_rotation	arm_flex_r	arm_add_r	arm_rot_r	elbow_flex_r	pro_sup_r	arm_flex_l	arm_add_l	arm_rot_l	elbow_flex_l	pro_sup_l
      0.50000000	      1.89520853	      6.82711890	    -21.05063650	      0.09109334	      0.99403646	      0.01977224	     -4.94088983	     -8.40982325	    -11.10102673	      3.26990492	      9.60246433	     -6.29275732	      0.00000000	      1.65008900	     -2.89417131	    -11.23154070	      8.76938285	     13.59149837	     -3.29463552	      0.00000000	     -7.89044190	     -1.46750890	      0.88336326	     16.83816812	    -19.31583400	     35.54351272	     19.86763026	    110.54166182	     12.27378601	    -19.52691166	     31.40051501	     20.19483662	    111.02461679
      0.51666670	      1.87342189	      6.82870787	    -21.03051679	      0.09073758	      0.99407167	      0.01992732	     -4.90486671	     -8.38605900	    -11.09988791	      3.27328513	      9.59822330	     -6.28284980	      0.00000000	      1.68444195	     -2.91677441	    -11.24886865	      8.73427451	     13.60914007	     -3.30980141	      0.00000000	     -7.93254883	     -1.47284597	      0.88845964	     16.79308823	    -19.03228638	     35.56548206	     19.94568296	    110.55677054	     12.35430273	    -19.33734505	     31.41066137	     20.27985115	    111.03417981
      0.53333330	      1.67137875	      6.68507010	    -21.00648123	      0.08936945	      0.99391969	      0.02059428	     -4.55010298	     -8.11748891	    -11.24474589	      3.53969877	      9.60020923	     -6.26195625	      0.00000000	      1.94780285	     -3.23994739	    -11.27731563	      8.81489062	     13.51149250	     -3.30150483	      0.00000000	     -7.89324078	     -1.35799747	      1.19840458	     16.57501674	    -18.70766765	     35.35580052	     20.01999157	    110.73745374	     12.68137420	    -19.09907306	     31.27043992	     20.52534779	    111.15864715
      0.55000000	      1.68199105	      6.69052530	    -21.00604930	      0.08865720	      0.99400311	      0.02074896	     -4.51436195	     -8.10251712	    -11.23606701	      3.53535641	      9.60068294	     -6.25056292	      0.00000000	      1.97190992	     -3.24472255	    -11.29476573	      8.79120221	     13.52630544	     -3.31579772	      0.00000000	     -7.93613418	     -1.33820735	      1.17501186	     16.49397266	    -18.32461624	     35.40066005	     20.12321416	    110.75727695	     12.70829398	    -18.75275099	     31.30543834	     20.63184401	    111.17292163
      0.56666670	      1.63546621	      6.62400352	    -20.96817103	      0.08757324	      0.99398959	      0.02132475	     -4.43315744	     -7.94685768	    -11.25309687	      3.57282683	      9.58159497	     -6.20842302	      0.00000000	      2.00008700	     -3.37549245	    -11.35641623	      8.67722284	     13.47233665	     -3.33186058	      0.00000000	     -7.88288443	     -1.29422655	      1.25834710	     16.26061295	    -17.84030537	     35.44044496	     20.22247767	    110.84965107	     12.81533007	    -18.37959402	     31.27288917	     20.74982173	    111.22302175
      0.58333330	      1.65768926	      6.62404409	    -20.98517757	      0.08644921	      0.99404406	      0.02162091	     -4.38752060	     -7.91104457	    -11.26612461	      3.56095542	      9.58302703	     -6.20870990	      0.00000000	      2.02361564	     -3.40149073	    -11.35493337	      8.65206181	     13.44406882	     -3.32254828	      0.00000000	     -7.92817964	     -1.25167858	      1.28433000	     16.15992938	    -17.39155180	     35.49771069	     20.33821798	    110.88184179	     12.80394046	    -17.91885029	     31.31474183	     20.88016256	    111.24492824
      0.60000000	      1.60092222	      6.50673574	    -21.00444632	      0.08522481	      0.99404169	      0.02245060	     -4.28436255	     -7.69241465	    -11.33283814	      3.60726183	      9.54452303	     -6.20755471	      0.00000000	      2.01421780	     -3.61116640	    -11.36022888	      8.49650233	     13.21637129	     -3.26393583	      0.00000000	     -7.92974862	     -1.13200973	      1.51502240	     15.88115743	    -16.89345669	     35.56781004	     20.44286025	    111.01070125	     12.86508471	    -17.42002834	     31.26338297	     21.07614819	    111.31100785
      0.61666670	      1.60936908	      6.51991958	    -21.00633093	      0.08383641	      0.99400309	      0.02273040	     -4.22515519	     -7.65213601	    -11.33811710	      3.57303010	      9.54565681	     -6.20412208	      0.00000000	      2.06285552	     -3.63078374	    -11.37117134	      8.43708778	     13.20779182	     -3.27007345	      0.00000000	     -8.04361516	     -1.11560945	      1.54148123	     15.81513562	    -16.36285567	     35.63037981	     20.60410780	    111.04374864	     12.84762940	    -16.86258459	     31.31509078	     21.24887061	    111.33420317
      0.63333330	      1.60691350	      6.51979824	    -20.99702825	      0.08223974	      0.99395397	      0.02293950	     -4.14436706	     -7.60027900	    -11.33908607	      3.54374980	      9.54038568	     -6.19750899	      0.00000000	      2.12914899	     -3.67288246	    -11.37258843	      8.36798623	     13.17403824	     -3.26284735	      0.00000000	     -8.21926432	     -1.10791832	      1.58665808	     15.68741016	    -15.83460558	     35.69572932	     20.75373537	    111.07527725	     12.79704085	    -16.32450513	     31.36295008	     21.42619270	    111.35505672
      0.65000000	      1.59841709	      6.49941858	    -20.97236930	      0.08079483	      0.99389416	      0.02306811	     -4.06185575	     -7.52884638	    -11.33466980	      3.53186345	      9.53034844	     -6.18613182	      0.00000000	      2.19124801	     -3.73354475	    -11.36994257	      8.29996580	     13.11630756	     -3.24837215	      0.00000000	     -8.40376570	     -1.09777883	      1.65983936	     15.54227359	    -15.29831688	     35.75539633	     20.91880723	    111.10844194	     12.73142112	    -15.77891935	     31.40217673	     21.63346235	    111.37575232
      0.66666670	      1.50175908	      6.09596114	    -21.22249023	      0.07914617	      0.99386521	      0.02389888	     -3.87466796	     -7.04070465	    -11.23366956	      3.68259145	      9.40156725	     -5.97970396	      0.00000000	      2.06167937	     -4.24180856	    -11.54885071	      8.13458571	     12.84281588	     -3.49787627	      0.00000000	     -8.70306569	     -0.75270633	      2.15505592	     15.22496364	    -15.04909324	     35.21759589	     21.73106907	    111.41955124	     12.42792296	    -15.27972281	     30.67467397	     22.79953515	    111.49955183
      0.68333330	      1.53082846	      6.08494574	    -21.21287639	      0.07800521	      0.99381575	      0.02373871	     -3.84113545	     -7.03260903	    -11.20660619	      3.69290120	      9.42129783	     -5.97204104	      0.00000000	      2.12210272	     -4.25463718	    -11.52338089	      8.14235069	     12.83475326	     -3.49432276	      0.00000000	     -8.87821507	     -0.77347434	      2.16951044	     15.05518651	    -14.45728024	     35.27972922	     21.88363135	    111.45054392	     12.34284237	    -14.72219086	     30.71646880	     22.95471734	    111.51906119
      0.70000000	      1.56822721	      6.04249524	    -21.16825196	      0.07677119	      0.99375936	      0.02342627	     -3.80377490	     -6.99559105	    -11.18065998	      3.72933204	      9.45129281	     -5.97082849	      0.00000000	      2.17457351	     -4.30277171	    -11.48791032	      8.16594461	     12.81817769	     -3.49332219	      0.00000000	     -9.07341220	     -0.81253058	      2.22525034	     14.90744921	    -13.89714768	     35.33792395	     22.03300998	    111.48106118	     12.24711631	    -14.15634257	     30.76099648	     23.12885765	    111.53904393
      0.71666670	      1.71930828	      5.72738814	    -21.15060006	      0.07479461	      0.99393193	      0.02329871	     -3.78002290	     -6.73814109	    -11.15136166	      4.12357914	      9.72898771	     -6.06579930	      0.00000000	      2.19991234	     -4.63943146	    -11.26804048	      8.50466913	     12.82421764	     -3.67467072	      0.00000000	     -9.65385196	     -0.66897337	      2.53870359	     14.82950561	    -13.44830356	     35.15632180	     22.30101532	    111.64983521	     12.33973627	    -13.58820553	     30.48322927	     23.71403720	    111.62020921
      0.73333330	      1.77196879	      5.68584579	    -21.09862972	      0.07372203	      0.99386310	      0.02314469	     -3.76682093	     -6.70676215	    -11.13478431	      4.19119843	      9.71879664	     -6.05630024	      0.00000000	      2.23986267	     -4.68794099	    -11.24159071	      8.54094203	     12.82160293	     -3.69899048	      0.00000000	     -9.76392439	     -0.73093854	      2.58200356	     14.73994690	    -12.92099534	     35.22751299	     22.44839771	    111.68474496	     12.26163497	    -12.99514903	     30.55910135	     23.89939067	    111.64785690
      0.75000000	      1.95708905	      5.50419536	    -21.00607510	      0.07238228	      0.99404150	      0.02295607	     -3.76302540	     -6.60897080	    -11.16085000	      4.62168110	      9.77982447	     -6.14657568	      0.00000000	      2.29489590	     -4.86872550	    -11.02269723	      8.94617870	     12.79438555	     -3.80760298	      0.00000000	    -10.14331201	     -0.70571535	      2.88240567	     14.63142948	    -12.59325444	     35.33433534	     22.53053803	    111.81721194	     12.38142908	    -12.40608900	     30.64123718	     24.39106369	    111.74439109
      0.76666670	      2.06988204	      5.32919578	    -20.97272436	      0.07013823	      0.99414573	      0.02241385	     -3.61312408	     -6.48644713	    -11.23360155	      4.99525350	      9.90855291	     -6.29505567	      0.00000000	      2.42555829	     -5.04461351	    -10.82895896	      9.23375767	     12.89142055	     -4.06074404	      0.00000000	    -10.61042847	     -0.58325867	      3.09540267	     14.86950047	    -12.32315639	     35.52323001	     22.70154380	    112.01684422	     12.60246270	    -11.87439888	     30.87915117	     24.95484841	    111.91126714
